<?xml version="1.0" encoding="UTF-8"?>
<svg id="_圖層_2" xmlns="http://www.w3.org/2000/svg" version="1.1" viewBox="0 0 166 62.8">
  <!-- Generator: Adobe Illustrator 29.8.2, SVG Export Plug-In . SVG Version: 2.1.1 Build 3)  -->
  <defs>
    <style>
      .st0 {
        fill: #fff;
      }
    </style>
  </defs>
  <g id="_圖層_1-2">
    <g>
      <g>
        <path class="st0" d="M29.4,23.2c-.6,0-1,.4-1,1v21.1c0,3-1.2,5.7-3.2,7.7s-4.7,3.2-7.7,3.2-4.5-.7-6.2-2c-1.3-.9-2.4-2.1-3.2-3.5l8.9-8c.2-.2.3-.5.3-.7h0v-3.2c0-.6-.5-1-1-1h-5.9c-.6,0-1,.4-1,1v4.3c0,.6.5,1,1,1l4.9-4.3v1.8l-9.2,8.2h0l-.5.5c1,2.3,2.5,4.2,4.6,5.6,2.1,1.5,4.7,2.3,7.4,2.3s6.8-1.5,9.2-3.8c2.3-2.3,3.8-5.6,3.8-9.2v-21.1c0-.6-.5-1-1-1h-.2Z"/>
        <path class="st0" d="M29.7,17.4h0c-.3,0-.6,0-.8.2l-4.7,4c-.2.2-.4.6-.4.9v22.8c0,1.7-.7,3.2-1.8,4.3-1.1,1.1-2.7,1.8-4.3,1.8s-1.7-.2-2.5-.5c-.8-.4-1.5-.9-2.1-1.5h0c-.4-.4-1-.4-1.4,0s-.4,1,0,1.4c.8.9,1.7,1.5,2.8,2,1,.5,2.1.7,3.3.7,2.2,0,4.3-.9,5.8-2.4s2.4-3.5,2.4-5.8v-22.4l3.9-3.3c2.6,1.2,4.4,3.9,4.4,6.9v3.5c1.8,0,3.5-1.1,3.5-2.9v-7.5l-7.7-2.2h-.4Z"/>
        <path class="st0" d="M37.3,17.3v-4.6l-2.9-1.6v2.6l-2.6-.8v-3.1l-2.2-1v-1.9l4.1-1.2-4.1-1.2h-.1c-.2,0-.4.2-.4.4v10h0l8.1,2.4h.1Z"/>
        <polygon class="st0" points="23.8 11 19.6 12.4 19.6 15.9 23.8 14.9 23.8 11"/>
        <polygon class="st0" points="28.8 14.9 28.8 14.9 19.6 16.9 19.6 19.1 28.8 17 28.8 14.9"/>
        <polygon class="st0" points="22.6 27.8 22.6 21.9 24.5 19.2 20.1 20.2 20.1 28.8 22.6 27.8"/>
      </g>
      <g>
        <path class="st0" d="M52.1,52.7l-3.3-3.4c-.4-.4-1-.4-1.4,0-.9.8-1.7,1.4-2.6,1.9-.8.4-1.8.6-3,.6s-1.7-.2-2.4-.5-1.3-.8-1.8-1.4c-.5-.6-.9-1.3-1.2-2.1s-.4-1.6-.4-2.6,0-1.7.4-2.5c.3-.8.7-1.5,1.2-2,.5-.6,1.1-1,1.9-1.4.7-.3,1.5-.5,2.3-.5s2,.2,2.8.6c.5.2,1.1,0,1.4-.5.2-.5,0-1.1-.5-1.4-1.1-.5-2.3-.8-3.7-.8s-2.2.2-3.2.7c-1,.4-1.8,1.1-2.5,1.8-.7.8-1.2,1.7-1.6,2.7-.4,1-.6,2.1-.6,3.3s.2,2.2.6,3.2c.4,1,.9,1.9,1.6,2.7.7.8,1.5,1.4,2.5,1.9s2.1.7,3.2.7,2.8-.3,3.9-.9c.8-.4,1.5-.9,2.3-1.5l2,2c-.4.3-.7.7-1.1,1-.6.5-1.3.9-2,1.2s-1.5.6-2.3.8c-.9.2-1.8.3-2.9.3-1.6,0-3.1-.3-4.5-.9s-2.6-1.4-3.5-2.4c-1-1-1.8-2.2-2.3-3.6-.6-1.4-.8-2.8-.8-4.5s.3-3,.8-4.4,1.3-2.6,2.3-3.6,2.2-1.8,3.6-2.4,2.9-.9,4.6-.9,2,0,2.8.2,1.6.4,2.3.7,1.3.6,1.9,1c.6.4,1.1.9,1.6,1.4s1,.4,1.4,0,.4-1,0-1.4c-.6-.6-1.2-1.1-1.9-1.6s-1.5-.9-2.3-1.3c-.8-.3-1.7-.6-2.7-.8-1-.2-2.1-.3-3.2-.3-2,0-3.8.4-5.4,1-1.6.7-3.1,1.7-4.2,2.9-1.2,1.2-2.1,2.6-2.8,4.2-.7,1.6-1,3.3-1,5.2s.3,3.6,1,5.2c.7,1.6,1.6,3,2.8,4.2,1.2,1.2,2.6,2.1,4.2,2.8,1.6.7,3.4,1,5.2,1s2.3,0,3.3-.3,1.9-.5,2.8-.9c.8-.4,1.6-.9,2.3-1.5s1.4-1.2,2-1.9c.4-.4.4-1,0-1.4h0v.4Z"/>
        <polygon class="st0" points="17.7 21.2 16.1 21.2 16.1 23.5 15 23.5 15 21.2 13.4 21.2 13.4 23.5 12 23.5 12 21.2 10.4 21.2 10.4 23.5 10.4 26.2 10.4 28.7 11.6 28.7 11.6 34.8 16.7 34.8 16.7 32.1 14.8 32.1 14.8 30.1 16.7 30.1 16.7 28.7 17.7 28.7 17.7 23.5 17.7 23.5 17.7 21.2"/>
        <path class="st0" d="M40.5,31.1h5.1v-2.5h1v-5.2h0v-2.3h-1.6v2.3h-1.2v-2.3h-1.6v2.3h-1.4v-2.3h-1.6v7.5h1.1v2.5h.2ZM43.8,25.1h1.9v1.9h-1.9v-1.9Z"/>
      </g>
    </g>
    <g>
      <path class="st0" d="M71,41.1h-1.3v3.7c0,.3.2.5.5.5h3.6l-.8,1.6h-4.1c-.3,0-.7-.2-1-.5-.3-.3-.5-.7-.5-1.1v-4.2h-2.5c-.1,2.1-.3,4.1-1.1,5.9h-2.3c1.1-2.4,1.4-5.7,1.4-7.7v-2.6c0-.4.2-.9.5-1.2.3-.4.8-.6,1.3-.6h17.4v1.5h-16.5c-.2,0-.5.2-.5.6v2.6h18v1.5h-9.4c.7.8,2,1.9,2.7,2.4.6-.3,1.8-1.1,2.4-1.6h3.5c-.9.9-2.8,2.1-4.1,2.8,1.3.8,3.5,1.8,5.2,2.4h-5c-2.6-1.4-5.5-3.6-7.3-5.9ZM80.5,30.1c0-.2-.2-.4-.4-.4h-6.5v4.6h-2.1v-4.6h-6.4c-.2,0-.5.2-.5.5v3.6h-2.2v-3.8c0-.5.2-.9.6-1.3.3-.3.7-.5,1.2-.5h7.3v-1.1h-8.3v-1.5h18.7v1.5h-8.3v1.1h7.1c.6,0,1.2.2,1.5.6.3.3.5.8.5,1.3v3.6h-2.2v-3.6ZM65.4,30.6h5.3v1.3h-5.3v-1.3ZM65.4,32.7h5.3v1.4h-5.3v-1.4ZM67.1,37.2h13.8v1.4h-13.8v-1.4ZM74.3,30.6h5.3v1.3h-5.3v-1.3ZM74.3,32.7h5.3v1.4h-5.3v-1.4Z"/>
      <path class="st0" d="M86.3,25.5h2.4c.7,1.8,1.4,3.5,2.7,5.1h-2.6c-1-1.6-1.8-3.3-2.5-5.1ZM88.8,46.9h-2.5c1.3-2.6,2.3-5.8,2.9-9h2.3c-.6,3.1-1.4,6.2-2.7,9ZM86.4,31.6h2.5c.6,1.8,1.4,3.6,2.6,5.1h-2.8c-1-1.6-1.7-3.4-2.3-5.1ZM102.7,33v.9h-6.3v-.8c-.7.8-1.5,1.7-2.3,2.5h-3.1c1.1-.9,2.7-2.3,3.7-3.7-1.2-1-2.2-2.3-3-3.5h2.7c.4.6.9,1.2,1.5,1.8.5-.7,1-1.6,1.2-2.3,0-.3,0-.5-.3-.5h-4.3v-1.6h4.9c.6,0,1.2.3,1.5.8.3.5.4,1.1.3,1.5-.4,1.4-1.5,3.1-2.2,4.2h5.3c-1.2-1.8-2.5-4.5-3.2-6.9h2.4c.2.6.5,1.4.8,2.1.4-.6.8-1,1.2-1.6h2.7c-.8,1.3-1.8,2.5-3,3.5.1.2.3.6.5.8.5-.5.9-1,1.3-1.5h2.8c-.8,1.2-1.8,2.4-2.9,3.3.8,1.3,2.1,2.6,3.4,3.7h-3.1c-.8-.8-1.6-1.7-2.3-2.6ZM91.5,45.3h8.4c.7-1.1,1.3-2.3,1.7-3.5h2.3c-.4,1.2-1,2.4-1.6,3.5h5.3v1.6h-16.1v-1.6ZM104.8,40.8c-.3.3-.7.4-1.2.4h-8.2c-.5,0-.9-.2-1.2-.5-.3-.3-.5-.7-.5-1.1v-2.5c0-.4.2-.9.6-1.2.3-.3.8-.5,1.3-.5h8.1c.4,0,.9.2,1.3.6.3.3.5.7.5,1.3v2.3c0,.4-.2.9-.6,1.2ZM94.9,41.8h2.4c.4,1,.9,2,1.5,2.9h-2.5c-.5-.9-1-1.9-1.4-2.9ZM102.9,37.1h-6.6c-.3,0-.4.2-.4.4v1.7c0,.3.3.5.5.5h6.5c.3,0,.4-.2.4-.5v-1.6c0-.2-.1-.4-.4-.4Z"/>
      <path class="st0" d="M126.2,31.6h2.4c.9,0,1.6.2,2,.7.4.4.6,1,.6,1.8v10.7c0,.6-.1,1.1-.4,1.5-.3.4-.9.7-1.8.7h-2.7l-.6-1.7h2.8c.3,0,.5-.1.5-.5v-10.9c0-.4-.2-.6-.6-.6h-3.4v1.7c0,.3.2.5.5.5h3l-.4,1.6h-3.6c-.5,0-.9-.1-1.2-.4-.3-.3-.5-.8-.5-1.4v-2h-2.5c0,1.4-.6,2.9-1.7,4.1h-3.3c1.6-.9,2.8-2.4,2.8-4.1h-2.9c-.4,0-.7.2-.7.6v13.1h-2.2v-13.3c0-.7.3-1.2.8-1.5.4-.3,1-.5,1.6-.5h2.7c-.5-.7-1.1-1.9-1.5-2.6h-4.4v-1.6h9.3c-.2-.5-.7-1.4-.9-1.9h2.5c.2.5.7,1.4,1,1.9h8.9v1.6h-4.4c-.4.7-1,1.8-1.5,2.6ZM126.3,44c-.3.4-.9.6-1.5.6h-6.5c-.5,0-1-.2-1.3-.6-.3-.3-.4-.7-.4-1.2v-2.8c0-.6.2-1.1.6-1.4.3-.2.7-.4,1.3-.4h6.6c.5,0,.9.2,1.2.5.3.3.5.7.5,1.3v2.8c0,.4-.1.8-.3,1.1ZM119.8,31.6h3.8c.5-.7,1.1-1.7,1.5-2.6h-6.9c.3.7,1.1,2,1.6,2.6ZM124.1,40h-4.9c-.2,0-.5.2-.5.5v1.9c0,.3.2.5.5.5h4.9c.3,0,.5-.2.5-.5v-2c0-.3-.2-.5-.5-.5Z"/>
      <path class="st0" d="M150.2,34.2c-.7.6-1.8,1.4-2.6,2h-3.1v2h-2.1v-3.5c0-.2-.2-.5-.5-.5h-.5v10.6c0,.6-.2,1.1-.5,1.4s-1,.6-1.7.6h-2.1l-.6-1.7h2.3c.3,0,.6-.3.6-.6v-10.3h-3.9v-1.7h3.1c-.6-.9-1.7-2.8-2.1-3.8h2.3c.2.6.7,1.4,1,1.9.5-.7,1.2-1.8,1.6-2.7,0-.2,0-.4-.3-.4h-5.1v-1.7h6.3c.6,0,1.1.3,1.3.8.2.4.3,1,0,1.5-.7,1.3-1.7,2.9-2.7,4.2h.1c0,.1,1.5.1,1.5.1.6,0,1.1.2,1.5.5.4.3.6.8.6,1.4v1.4c1.2-.6,3-1.9,4.1-2.9-.5-.5-1.4-1.4-1.8-1.8h-2.8c1.6-1.9,2.6-3.8,3.3-5.7h2.5c-.2.5-.5,1.3-.8,1.8h7.4v1.7h-1.4c-.8,1.1-2.2,2.9-3.2,3.9,1.3,1.1,4,2.6,5.5,3.4h-4c-.8-.5-2.2-1.4-3-2ZM137.7,43.6h-2.1c.5-2.1,1.1-5.6,1.1-8h2c0,2.2-.5,5.9-1,8ZM155.3,46.2c-.4.4-1,.7-1.8.7h-2l-.7-1.7h2.5c.3,0,.5-.3.5-.7v-4.1c0-.2-.3-.5-.5-.5h-2.4c-.4,2.9-2.3,5.3-4.3,7h-3.2c2.9-1.9,5.1-4.5,5.4-7h-3.5v-1.7h3.8c0-.5.1-1.5.1-2h2.1c0,.5-.1,1.6-.2,2h2.9c.6,0,1.2.2,1.5.6.4.4.6,1,.6,1.6v4.1c0,.7-.2,1.3-.6,1.7ZM147.3,30.1h1.4c.3.4,1,1,1.4,1.4.7-.7,1.6-1.7,2.2-2.6h-4.3c-.1.3-.5.9-.7,1.2Z"/>
    </g>
  </g>
</svg>