<?xml version="1.0" encoding="UTF-8"?>
<svg id="_圖層_2" xmlns="http://www.w3.org/2000/svg" version="1.1" viewBox="0 0 265.3 62.8">
  <!-- Generator: Adobe Illustrator 29.8.1, SVG Export Plug-In . SVG Version: 2.1.1 Build 2)  -->
  <defs>
    <style>
      .st0 {
        fill: #fff;
      }
    </style>
  </defs>
  <g id="_圖層_1-2">
    <g>
      <g>
        <path class="st0" d="M29.4,22.8c-.6,0-1,.4-1,1v21.1c0,3-1.2,5.7-3.2,7.7-2,2-4.7,3.2-7.7,3.2s-4.5-.7-6.2-2c-1.3-.9-2.4-2.1-3.2-3.5l8.9-8c.2-.2.3-.5.3-.7h0v-3.2c0-.6-.5-1-1-1h-5.9c-.6,0-1,.4-1,1v4.3c0,.6.5,1,1,1l4.9-4.3v1.8l-9.2,8.2h0l-.5.5c1,2.3,2.5,4.2,4.6,5.6,2.1,1.5,4.7,2.3,7.4,2.3s6.8-1.5,9.2-3.8c2.3-2.3,3.8-5.6,3.8-9.2v-21.1c0-.6-.5-1-1-1h0Z"/>
        <path class="st0" d="M29.7,17s0,0,0,0h0c-.3,0-.6,0-.8.2l-4.7,4c-.2.2-.4.6-.4.9v22.8c0,1.7-.7,3.2-1.8,4.3-1.1,1.1-2.7,1.8-4.3,1.8s-1.7-.2-2.5-.5c-.8-.4-1.5-.9-2.1-1.5h0c-.4-.4-1-.4-1.4,0s-.4,1,0,1.4c.8.9,1.7,1.5,2.8,2,1,.5,2.1.7,3.3.7,2.2,0,4.3-.9,5.8-2.4s2.4-3.5,2.4-5.8v-22.4l3.9-3.3c2.6,1.2,4.4,3.9,4.4,6.9v3.5c1.8,0,3.5-1.1,3.5-2.9v-7.5l-7.7-2.2h0Z"/>
        <path class="st0" d="M37.3,16.9v-4.6l-2.9-1.6v2.6l-2.6-.8v-3.1l-2.2-1v-1.9l4.1-1.2-4.1-1.2s0,0-.1,0c-.2,0-.4.2-.4.4v10h0s8.1,2.4,8.1,2.4Z"/>
        <polygon class="st0" points="23.8 10.6 19.6 12 19.6 15.5 23.8 14.5 23.8 10.6"/>
        <polygon class="st0" points="28.8 14.5 28.8 14.5 19.6 16.5 19.6 18.7 28.8 16.6 28.8 14.5"/>
        <polygon class="st0" points="22.6 27.4 22.6 21.5 24.5 18.8 20.1 19.8 20.1 28.4 22.6 27.4"/>
      </g>
      <g>
        <path class="st0" d="M52.1,52.3l-3.3-3.4c-.4-.4-1-.4-1.4,0-.9.8-1.7,1.4-2.6,1.9-.8.4-1.8.6-3,.6s-1.7-.2-2.4-.5c-.7-.3-1.3-.8-1.8-1.4-.5-.6-.9-1.3-1.2-2.1-.3-.8-.4-1.6-.4-2.6s.1-1.7.4-2.5c.3-.8.7-1.5,1.2-2,.5-.6,1.1-1,1.9-1.4.7-.3,1.5-.5,2.3-.5s2,.2,2.8.6c.5.2,1.1,0,1.4-.5.2-.5,0-1.1-.5-1.4-1.1-.5-2.3-.8-3.7-.8s-2.2.2-3.2.7c-1,.4-1.8,1.1-2.5,1.8-.7.8-1.2,1.7-1.6,2.7-.4,1-.6,2.1-.6,3.3s.2,2.2.6,3.2c.4,1,.9,1.9,1.6,2.7.7.8,1.5,1.4,2.5,1.9,1,.5,2.1.7,3.2.7s2.8-.3,3.9-.9c.8-.4,1.5-.9,2.3-1.5l2,2c-.4.3-.7.7-1.1,1-.6.5-1.3.9-2,1.2-.7.3-1.5.6-2.3.8-.9.2-1.8.3-2.9.3-1.6,0-3.1-.3-4.5-.9s-2.6-1.4-3.5-2.4c-1-1-1.8-2.2-2.3-3.6-.6-1.4-.8-2.8-.8-4.5s.3-3,.8-4.4,1.3-2.6,2.3-3.6c1-1,2.2-1.8,3.6-2.4s2.9-.9,4.6-.9,2,0,2.8.2c.8.2,1.6.4,2.3.7.7.3,1.3.6,1.9,1,.6.4,1.1.9,1.6,1.4s1,.4,1.4,0,.4-1,0-1.4c-.6-.6-1.2-1.1-1.9-1.6-.7-.5-1.5-.9-2.3-1.3-.8-.3-1.7-.6-2.7-.8-1-.2-2.1-.3-3.2-.3-2,0-3.8.4-5.4,1-1.6.7-3.1,1.7-4.2,2.9-1.2,1.2-2.1,2.6-2.8,4.2-.7,1.6-1,3.3-1,5.2s.3,3.6,1,5.2c.7,1.6,1.6,3,2.8,4.2,1.2,1.2,2.6,2.1,4.2,2.8,1.6.7,3.4,1,5.2,1s2.3-.1,3.3-.3c1-.2,1.9-.5,2.8-.9.8-.4,1.6-.9,2.3-1.5.7-.6,1.4-1.2,2-1.9.4-.4.4-1,0-1.4h0Z"/>
        <polygon class="st0" points="17.7 20.8 16.1 20.8 16.1 23.1 15 23.1 15 20.8 13.4 20.8 13.4 23.1 12 23.1 12 20.8 10.4 20.8 10.4 23.1 10.4 25.8 10.4 28.3 11.6 28.3 11.6 34.4 16.7 34.4 16.7 31.7 14.8 31.7 14.8 29.7 16.7 29.7 16.7 28.3 17.7 28.3 17.7 23.1 17.7 23.1 17.7 20.8"/>
        <path class="st0" d="M40.5,30.7h5.1v-2.5h1v-5.2h0v-2.3h-1.6v2.3h-1.2v-2.3h-1.6v2.3h-1.4v-2.3h-1.6v7.5h1.1v2.5h0ZM43.8,24.7h1.9v1.9h-1.9v-1.9Z"/>
      </g>
    </g>
    <g>
      <path class="st0" d="M71,40.5h-1.3v3.7c0,.3.2.5.5.5h3.6l-.8,1.6h-4c-.3,0-.7-.2-1-.5-.3-.3-.5-.7-.5-1.1v-4.2h-2.5c-.1,2.1-.3,4-1.1,5.8h-2.3c1-2.3,1.3-5.7,1.3-7.6v-2.6c0-.4.2-.9.5-1.2.3-.4.8-.6,1.3-.6h17.3v1.5h-16.4c-.2,0-.5.2-.5.6v2.6h17.8v1.5h-9.3c.7.8,2,1.9,2.7,2.4.6-.3,1.8-1.1,2.3-1.6h3.5c-.9.9-2.8,2.1-4,2.8,1.3.8,3.4,1.8,5.1,2.3h-5c-2.6-1.4-5.5-3.5-7.2-5.8ZM80.4,29.7c0-.2-.2-.4-.4-.4h-6.4v4.6h-2.1v-4.6h-6.3c-.2,0-.5.2-.5.5v3.5h-2.2v-3.8c0-.5.2-.9.6-1.2.3-.3.7-.5,1.2-.5h7.2v-1h-8.2v-1.5h18.5v1.5h-8.2v1h7.1c.6,0,1.1.2,1.5.6.3.3.5.8.5,1.3v3.6h-2.2v-3.6ZM65.4,30.1h5.2v1.3h-5.2v-1.3ZM65.4,32.2h5.2v1.3h-5.2v-1.3ZM67.2,36.7h13.7v1.4h-13.7v-1.4ZM74.3,30.1h5.2v1.3h-5.2v-1.3ZM74.3,32.2h5.2v1.3h-5.2v-1.3Z"/>
      <path class="st0" d="M86.2,25.1h2.4c.7,1.8,1.4,3.5,2.7,5h-2.6c-1-1.6-1.8-3.3-2.5-5ZM88.7,46.3h-2.5c1.3-2.6,2.2-5.7,2.9-9h2.2c-.6,3.1-1.4,6.1-2.6,9ZM86.3,31.1h2.5c.6,1.8,1.4,3.6,2.6,5.1h-2.8c-1-1.6-1.7-3.3-2.3-5.1ZM102.4,32.5v.9h-6.2v-.8c-.7.8-1.5,1.7-2.3,2.5h-3.1c1.1-.9,2.7-2.3,3.7-3.6-1.2-1-2.1-2.2-3-3.4h2.7c.4.6.9,1.2,1.5,1.8.5-.7,1-1.6,1.2-2.3,0-.3,0-.5-.3-.5h-4.2v-1.6h4.9c.6,0,1.1.3,1.5.8.3.5.4,1,.3,1.5-.4,1.3-1.5,3.1-2.2,4.1h5.3c-1.2-1.8-2.4-4.5-3.2-6.9h2.3c.2.6.5,1.4.8,2,.4-.6.8-1,1.1-1.6h2.7c-.8,1.3-1.8,2.5-3,3.5.1.2.3.6.5.8.5-.5.9-1,1.3-1.5h2.8c-.8,1.2-1.8,2.3-2.9,3.2.8,1.3,2.1,2.6,3.4,3.7h-3.1c-.8-.8-1.6-1.7-2.2-2.6ZM91.4,44.7h8.3c.7-1.1,1.3-2.3,1.7-3.5h2.3c-.4,1.2-1,2.4-1.6,3.5h5.3v1.6h-16v-1.6ZM104.6,40.2c-.3.3-.7.4-1.2.4h-8.1c-.5,0-.9-.2-1.2-.5-.3-.3-.5-.7-.5-1.1v-2.4c0-.4.2-.9.6-1.2.3-.3.8-.5,1.3-.5h8.1c.4,0,.9.2,1.3.6.3.3.5.7.5,1.2v2.3c0,.4-.2.9-.6,1.2ZM94.8,41.2h2.4c.4,1,.9,2,1.5,2.9h-2.4c-.5-.9-1-1.9-1.4-2.9ZM102.6,36.6h-6.5c-.3,0-.4.2-.4.4v1.7c0,.3.3.5.5.5h6.4c.3,0,.4-.2.4-.5v-1.6c0-.2-.1-.4-.4-.4Z"/>
      <path class="st0" d="M110.6,45.3v-2c.9-.3,2.2-.7,2.8-1v-7h-2.5v-1.8h2.5v-5.5h-2.9v-1.8h7.9v1.8h-2.8v5.5h2.1v1.8h-2.1v6.1c.8-.3,2-.9,3-1.5v2c-2,1-5.3,2.6-8,3.5ZM127.8,46.3c-.7,0-1.3-.3-1.7-.9-.3-.5-.5-1.1-.5-1.8v-9.1h-2.2c-.1,5.3-.9,8-3.7,11.7h-3.1c2.9-3,4.7-6.1,4.5-11.7h-2.8v-1.7h13.4v1.7h-3.9v9.4c0,.3.2.6.5.6h3.6l-.8,1.7h-3.3ZM119.4,25.5h11.1v1.7h-11.1v-1.7Z"/>
      <path class="st0" d="M143.7,27.3c-.1-.2-.4-.4-.7-.4h-2.9c-.2,0-.5.1-.6.3-.5.9-1.2,2-2.1,3h-2.8c1.3-1.2,2.4-2.8,3.2-4.2.2-.2.4-.5.8-.6.3-.1.6-.2.9-.2h4.1c.4,0,.8.1,1.1.3.3.2.6.6.8.9.7,1.3,1.7,2.7,2.7,3.7h-2.7c-.8-.9-1.4-2-1.9-2.9ZM146.6,38c-.4.4-1.1.7-1.9.7h-6.2c0,2.6-.2,5.3-1.2,7.6h-2.4c1-2.2,1.4-5.2,1.4-7.7v-5.9c0-.5.2-1.1.6-1.4.3-.3.8-.5,1.3-.5h2.7c-.3-.8-.6-1.6-.9-2.4h2.3c.2.8.4,1.7.8,2.4h1.8c.7,0,1.2.2,1.6.6.4.4.6,1,.6,1.7v3.7c0,.6-.2,1.1-.5,1.5ZM144.5,32.2h-5.4c-.3,0-.6.2-.6.6v1h6.6v-1.1c0-.3-.3-.5-.5-.5ZM138.4,35.3v1.7h6.1c.2,0,.5-.2.5-.5v-1.2h-6.6ZM146.9,45.7c-.3.3-.8.5-1.5.5h-4.6c-.5,0-1-.2-1.4-.6s-.5-.8-.5-1.3v-2.6c0-.6.3-1.1.7-1.4.4-.2.8-.4,1.2-.4h4.6c.5,0,.9.2,1.2.4.4.4.7.9.7,1.5v2.4c0,.4-.2.9-.6,1.3ZM144.8,41.7h-3.2c-.2,0-.5.2-.5.4v2c0,.2.2.5.4.5h3.2c.3,0,.5-.2.5-.5v-1.9c0-.2-.2-.5-.5-.5ZM149.1,26.4h2.1v14.5h-2.1v-14.5ZM155.3,45.7c-.4.4-1.1.5-1.7.5h-3.2l-.8-1.7h3.4c.5,0,.8-.3.8-.8v-18.8h2.1v19.4c0,.6-.2,1-.6,1.3Z"/>
      <path class="st0" d="M162.3,46.3h-3.3c2.2-1.7,4.5-3.8,5.7-6.2h2.6c-1.3,2.2-3,4.4-5.1,6.2ZM159.6,37.4h4.5v-6.1h-3.7v-1.8h3.7v-4.4h2.3v4.4h7v-4.4h2.3v4.4h3.7v1.8h-3.7v6.1h4.6v1.8h-20.7v-1.8ZM166.4,31.2v6.1h7v-6.1h-7ZM172.4,40.1h2.6c1.5,2.3,3.6,4.5,5.8,6.2h-3.3c-2.1-1.9-3.8-4-5.1-6.2Z"/>
      <path class="st0" d="M195.5,44c0,.8-.2,1.4-.6,1.7-.4.5-1.1.6-2,.6h-3.9l-.8-1.6h4.4c.3,0,.6-.2.6-.6v-2.2h-9.5v-1.6h9.5v-1.4c2.5-.4,4.9-.9,7.2-1.7-.9,0-3.4.2-4.2.2h-10.8v-1.6h16.3c.7,0,1.1.4,1.3.9.2.6,0,1.3-.8,1.6-1.8.7-4.9,1.5-6.7,1.8v.2h9.5v1.6h-9.5v2.1ZM184,26.8h9c-.3-.4-.8-1.2-1.1-1.7h2.7c.3.6.7,1.2,1.2,1.7h8.8v1.6h-20.6v-1.6ZM202.7,34c-.3.3-.8.5-1.4.5h-14.2c-.6,0-1-.2-1.3-.5-.3-.3-.4-.8-.4-1.4v-1.1c0-.6.1-1.1.4-1.4.3-.3.8-.5,1.4-.5h14.2c.7,0,1.1.2,1.4.5.3.3.4.8.4,1.4v.9c0,.7-.1,1.2-.5,1.6ZM200.3,31.1h-12.1c-.3,0-.6.2-.6.6v.7c0,.3.2.5.5.5h12.2c.3,0,.6-.2.6-.6v-.7c0-.3-.3-.6-.6-.6Z"/>
      <path class="st0" d="M208.1,44.6h9.5v-6.6h-7.8v-1.7h17.9v1.7h-7.9v6.6h9.5v1.7h-21.3v-1.7ZM226.9,29.2c0-.2-.2-.5-.5-.5h-4.5v3.6c0,.4.2.6.5.6h6l-.7,1.7h-6.1c-.6,0-1.1-.3-1.5-.7-.3-.4-.5-.8-.5-1.3v-3.8h-2.1c-.7,2.6-2.6,4.8-4.8,6.5h-4.1c2.5-1.3,5.6-3.6,6.5-6.5h-3.9c-.4,0-.7.4-.7.7v2.4h-2.2v-2.5c0-.8.3-1.4.8-1.8.4-.3,1-.5,1.6-.5h7.4c-.2-.4-.6-1.4-.8-1.9h2.5c.2.7.5,1.3.9,1.9h6.2c.6,0,1.1.2,1.5.5.6.5.9,1.2.9,2v2.3h-2.2v-2.6Z"/>
      <path class="st0" d="M241.4,33.1c-.4.4-.9.6-1.4.6h-5.1v12.5h-2.2v-19c0-.5.2-1,.6-1.3.4-.3.9-.5,1.5-.5h5.1c.6,0,1.1.3,1.5.8.3.3.4.8.4,1.4v4.2c0,.5-.2,1-.6,1.3ZM239.1,26.9h-3.5c-.4,0-.7.2-.7.6v1.2h4.8v-1.1c0-.3-.2-.7-.6-.7ZM234.9,30.3v1.8h4.1c.4,0,.8-.3.8-.7v-1.1h-4.8ZM248,44.2c-.4.4-1,.7-1.7.7h-6.8c-.6,0-1.1-.2-1.4-.5-.4-.4-.6-.9-.6-1.5v-6.4c0-.6.2-1,.6-1.4.4-.4,1-.6,1.4-.6h6.9c.5,0,1.1.2,1.6.7.3.4.6.9.6,1.6v6c0,.6-.2,1-.5,1.4ZM245.8,36.2h-5.5c-.3,0-.7.3-.7.6v2.1h6.8v-2.1c0-.3-.3-.6-.7-.6ZM239.6,40.5v2.1c0,.3.3.6.6.6h5.6c.4,0,.6-.2.6-.6v-2.2h-6.8ZM252.7,45.7c-.4.3-1,.5-1.6.5h-2.5l-.8-1.6h2.6c.3,0,.7-.2.7-.7v-10.2h-4.9c-.6,0-1-.2-1.4-.4-.5-.3-.7-.9-.7-1.6v-4.4c0-.6.2-1,.6-1.3.4-.4,1-.6,1.4-.6h5.3c.5,0,1,.3,1.4.7.3.3.5.8.5,1.4v17c0,.5-.2,1-.6,1.3ZM250.5,26.9h-3.6c-.4,0-.7.3-.7.6v1.2h4.8v-1.2c0-.3-.3-.6-.6-.6ZM246.3,30.3v1.1c0,.3.3.7.7.7h4.1v-1.8h-4.8Z"/>
    </g>
  </g>
</svg>