<?xml version="1.0" encoding="UTF-8"?>
<svg id="_圖層_2" data-name="圖層 2" xmlns="http://www.w3.org/2000/svg" viewBox="0 0 196.54 196.62">
  <defs>
    <style>
      .cls-1 {
        fill: #fff;
      }
    </style>
  </defs>
  <g id="_圖層_1-2" data-name="圖層 1">
    <g>
      <path class="cls-1" d="M75.25,78.76v10.94c0,.95-2.31,2.13-3.26,2.13-1.09,0-3.26-1.6-3.26-2.52v-10.55h-6.52v10.94c0,.88-2.31,2.13-3.26,2.13-1.09,0-3.26-1.6-3.26-2.52v-10.55H21.71c-2.97,0-6.87-3.58-7.89-6.31s-2.05-12.63,1.77-13.24l86.34-.03c4.68.54,2.84,6.53,0,6.53H19.6c-.12,3.29-.27,6.08,3.65,6.52l84.07.02c1.59-.01,2.98-.6,3.72-2.03l.32-60.37c0-1.72-1.04-2.76-2.61-3.15l-86.86.08c-1.21.57-2.24,1.67-2.29,3.08l-.07,40.23c-1.8,3.85-6.06,2.95-6.46-1.44-1.15-12.54.89-26.82.02-39.54.39-3.89,3.13-7.26,6.82-8.53,29.77-1.12,59.8-.21,89.67-.46,4.18.87,7.63,3.92,8.24,8.26l.06,61.38c.09,3.88-4.88,9-8.65,9h-33.97Z"/>
      <path class="cls-1" d="M15.18,117.91c-2.62-.59-3.32-6.1,1.52-6.54h163.53c2.76.33,4.22,3.17,2.5,5.49-.12.16-1.27,1.05-1.35,1.05h-57v19.57h55.84c.18,0,2.08.9,2.32,1.13,1.63,1.56.62,5.39-1.17,5.39h-56.42l-.58.58v18.81l.58.58h56.42c1.08,0,2.22,2.53,2.11,3.61-.11,1.15-1.81,2.91-2.88,2.91h-56.23v19.57h56.61c.37,0,1.82,1.32,2.06,1.78,1.21,2.29-.46,4.46-2.82,4.76h-59.12c-1.02.27-3.25-1.79-3.25-2.5v-76.19H15.18Z"/>
      <path class="cls-1" d="M6.55,194.1c-.58,3.27-6.04,3.47-6.53-.76v-91.37c-.1-1.49.81-2.62,2.03-3.34l192.21-.12,1.99,1.85.3,92.98c-.22,2.69-3.31,4.28-5.49,2.51-.22-.18-1.04-1.65-1.04-1.75v-89.23H6.55v89.23Z"/>
      <path class="cls-1" d="M177.02,72.95c3.2.91,5.9,4.4,6.37,7.64s1.31,12.71-4.41,10.92c-4.7-1.48.97-11.53-4.87-12.77l-34.1.1c-5.23,1.56-.22,10.95-4.27,12.61-5.59,2.3-5.12-6.24-4.84-9.44.37-4.3,2.62-7.54,6.55-9.26.42-5.31-.63-11.6.02-16.79.18-1.43.72-2.75,2.17-3.19l35.7.18c.96.44,1.52,1.98,1.63,2.97.29,2.42-.51,16.39.05,17.03ZM170.43,59.19h-26.48v12.47l.58.58h25.91v-13.05Z"/>
      <path class="cls-1" d="M156.91,124.5c3.78-.49,5.13,5.85,1.02,6.44-5.01.72-5.22-5.89-1.02-6.44Z"/>
      <path class="cls-1" d="M154.82,177.91c2.29-2.5,6.99.05,5.43,3.71-1.9,4.47-8.96.15-5.43-3.71Z"/>
      <path class="cls-1" d="M156.12,151c5-1.13,5.74,5.21,1.95,6.2-4.24,1.11-5.8-5.33-1.95-6.2Z"/>
    </g>
  </g>
</svg>