<?xml version="1.0" encoding="UTF-8"?>
<svg id="_圖層_2" data-name="圖層 2" xmlns="http://www.w3.org/2000/svg" viewBox="0 0 220.27 220.43">
  <defs>
    <style>
      .cls-1 {
        fill: #fff;
      }
    </style>
  </defs>
  <g id="_圖層_1-2" data-name="圖層 1">
    <g>
      <path class="cls-1" d="M190.99,18.97l-81.99,10.34L25.21,18.44c-4.93-1.07-3.99-7.36.87-7.53L109.87,0l84.94,11.06c1.73.36,3.07,1.24,3.4,3.06.9,5.02-.48,11.86.12,17.09,4.19,6.21,10.31,14.94,5.66,22.48-4.38,7.1-16.44,6.64-19.52-1.3-2.16-5.56-.08-11.37,2.91-16.18.62-1,3.62-4.26,3.62-4.55v-12.69ZM164.74,15.09c-.18-.84-.86-.76-1.5-.86-17.53-2.84-35.42-3.92-52.95-6.9l-54.85,7.55,54.43,7.13,54.87-6.92ZM194.01,39.19c-2.45,3.69-6.23,13.62,1.92,12.03,4.06-.79,1.77-7.05.45-9.46-.32-.59-1.61-3.1-2.37-2.57Z"/>
      <path class="cls-1" d="M139.35,176.46c15.13.23,30.81,1.05,45.54,4.59,10.22,2.46,27.08,8.48,31.27,19.08.97,2.47,4.05,13.84,4.11,16.15.1,3.71-4.72,5.54-6.61,2.66-2.04-3.1-2.82-11.88-4.28-15.9-3.13-8.61-20-13.45-28.2-15.26-13.52-2.98-28.02-4-41.85-3.82-1.94,13.27-11.29,24.13-25.13,25.22-15.55,1.22-27.55-5.05-32.19-20.33-.33-1.1-.56-4.71-1.44-5.01-1.24-.42-9.58-.14-11.58-.07-.92.03-1.74.41-2.57.44-14.26.65-49.34,2.48-55.37,18.21-1.4,3.65-2.82,14.51-4.63,16.77-2.25,2.81-6.88.56-6.38-3.66.4-3.31,2.52-11.17,3.65-14.44,4.81-13.92,21.36-18.97,34.47-21.47s28.06-3.02,41.97-3.21l.65-.65c-.2-3.72.11-7.62,4.92-6.52,3.82.88,2.18,9.84,2.46,13.02.9,10.09,7.89,18.62,18.29,19.58,13.3,1.22,23.91-4.91,25.48-18.83.36-3.23-1.22-12.9,2.58-13.77,5.18-1.19,5.12,3.46,4.86,7.22Z"/>
      <path class="cls-1" d="M167.85,109.86c-.58.58-4.54,13.35-5.37,15.5-8.96,23.15-25.25,43.72-52.53,43.62-32.92-.12-50.34-30.8-57.51-58.92-5.73-2.06-8.22-5.67-8.64-11.69-.34-4.95-.67-16.34,2.17-20.24,1.09-1.5,4.63-3.56,4.94-4.09.88-1.47-.71-7,3.02-7.73,5.58-1.1,5.35,6.43,4.94,10.1-.68,6.12-5.43,3.24-7.07,6.27-.97,1.79-.96,13.16-.68,15.68.72,6.41,5.12,3.09,7.07,6.27,5.24,13.86,8.43,28.73,18.33,40.19,19.33,22.38,47.77,22.37,67.1,0,9.9-11.46,13.09-26.35,18.33-40.19,1.86-3.03,6.07-.15,6.97-5.51.48-2.87.38-10.21.12-13.25-.65-7.73-6.85-2.59-7.72-9.06-.49-3.64-.78-11.62,4.9-10.49,3.55.7,2.25,5.59,2.88,7.45.29.86,5.23,3.15,6.51,7.26,1.2,3.85,1.24,18.34-.1,22.1-1.01,2.83-3.14,4.52-5.6,6.02-.61.37-1.86.51-2.07.72Z"/>
      <path class="cls-1" d="M109.67,89.54c1.1.17.67-.09.9-.6,1.72-3.85,3.55-7.31,8.39-7.97,3.31-.45,16.48-.49,19.57.15,3.9.81,6.09,3.93,7.95,7.13.82.19,8.27-6.75,9.99-7.21,4.06-1.09,6.38,2.94,3.99,6.14l-13.54,10.13c-2.88,12.17-12.11,13.88-23.25,12.88-6.33-.57-12.45-5.59-13.13-12.04-1.13-.12-.68.01-.87.63-1.96,6.58-6.44,10.87-13.53,11.43-11.47.9-19.84-.95-23.03-13.15l-13.73-10.36c-1.4-2.82-.17-5.84,3.19-5.81,2.73.03,10.21,7.58,11.17,7.36,1.86-3.2,4.04-6.32,7.95-7.13,3.09-.64,16.26-.6,19.57-.15,3.89.53,8.15,4.57,8.43,8.57ZM101.78,89.24c-.48-.53-1.48-.93-2.21-1.02-2.19-.27-14.97-.3-16.61.21-3.52,1.1-2.55,9.88-.19,12.29,2.65,2.7,9.34,2.48,12.93,2.17,3.2-.28,6.43-2.65,6.98-5.93.32-1.9.42-6.28-.9-7.72ZM118.41,89.24c-1.31,1.44-1.21,5.83-.9,7.72.55,3.28,3.78,5.65,6.98,5.93,3.52.31,10.02.52,12.67-2s3.69-11.32.06-12.46c-1.63-.51-14.42-.48-16.61-.21-.73.09-1.73.49-2.21,1.02Z"/>
      <path class="cls-1" d="M58.95,52.9c32.44,12.71,69.86,12.75,102.3,0,.6-.93-.22-18.97.04-22.12.14-1.62.65-4.3,2.47-4.84,2.99-.89,4.74.89,5.18,3.68.77,4.94.62,19.22.13,24.43-.42,4.46-3.6,5.06-7.22,6.55-28.54,11.8-67.99,11.76-97.16,2.26-3.86-1.26-12.89-3.65-13.51-8.01-.73-5.13-.51-18.68-.05-24.07.16-1.83.7-4.5,2.82-4.92,3.34-.66,4.64,1.58,4.93,4.51.33,3.24-.55,21.58.06,22.53Z"/>
      <path class="cls-1" d="M98.36,132.21c2.28-.47,4.62,2.34,7.08,3.07,2.94.88,6.36.88,9.31,0s6.68-5.43,9.31-1.41c3.71,5.66-8.18,9.08-12.09,9.39-4.31.35-12.86-1.32-15.66-4.88-1.65-2.1-.7-5.6,2.05-6.17Z"/>
    </g>
  </g>
</svg>