<?xml version="1.0" encoding="UTF-8"?>
<svg id="_圖層_2" data-name="圖層 2" xmlns="http://www.w3.org/2000/svg" viewBox="0 0 183.96 197.41">
  <defs>
    <style>
      .cls-1 {
        fill: #fff;
      }
    </style>
  </defs>
  <g id="_圖層_1-2" data-name="圖層 1">
    <g>
      <path class="cls-1" d="M6.56,164.35h96.4c1.27,0,2.27,2.36,2.11,3.62-.15,1.17-1.78,2.92-2.88,2.92H6.56v6.54h96.4c1.66,0,2.66,3.25,1.75,4.83-.19.33-1.89,1.71-2.14,1.71H7.33c1.9,3.38,4.6,6.13,8.66,6.54h86.22c4.19.56,3.74,6.39-.39,6.56H15.22c-7.9-1.03-14.38-7.67-15.22-15.58L.06,27.97c2.07-11.33,12.23-16.52,23.22-14.83,3.78.58,3.83,5.46,1.01,6.35-3.52,1.1-7.44-.82-11.77,1.32-2.14,1.06-5.95,5.13-5.95,7.52v136.04Z"/>
      <path class="cls-1" d="M161.93,125.19c4.69-.73,7.95.41,11.46,3.36,6.89,5.8,14.88,14.2,7.81,23.23l-44.82,44.85c-.56.42-1.2.39-1.86.45-4.78.44-14.49.44-19.28,0-2.04-.19-3.4-1.16-3.65-3.28-.48-4.04-.48-15.62,0-19.64.12-.98.46-1.66,1-2.47l42.49-42.56c2.08-1.6,4.11-3.52,6.83-3.94ZM164.25,131.35c-3.21.17-5.63,4.37-7.98,6.26l15.14,14.79c4.59-4.53,8.69-6.8,3.52-13.06-2-2.42-7.54-8.15-10.68-7.98ZM151.45,142.43l-28.12,28.09c-.26.29-.15.47,0,.76.14.28,4.17,4.31,4.45,4.45l28.85-28.12-5.19-5.19ZM161.12,152.45l-28.33,28.26,5.19,5.19,28.12-28.09c.36-.45.04-.63-.19-.97-.4-.58-4.41-4.45-4.78-4.39ZM133.17,190.52l-15.01-15.01v15.01h15.01Z"/>
      <path class="cls-1" d="M147.31,13.2c10.16-1.83,20.19,2.66,23.08,12.91,1.17,29.25.15,58.71.52,88.04.13,4.46-6.04,5.26-6.57.76l-.09-86.11c-.82-4.55-4.66-8.54-9.37-9.1-3.54-.42-11.99,1.73-9.98-4.68.34-1.1,1.34-1.62,2.42-1.81Z"/>
      <path class="cls-1" d="M61.48,98.63l74.67.21c2.72,1.16,2.06,6.25-1.24,6.26H62.16c-3.6-.08-3.94-5.74-.68-6.47Z"/>
      <path class="cls-1" d="M61.87,118.26l66.11-.1c4.22.18,4.57,6.07.38,6.56H62.16c-3.76-.35-4.04-5.7-.29-6.46Z"/>
      <path class="cls-1" d="M130.37,64.95c-.65.55-2.26.83-3.14.9l-64.28-.02c-3.61-.2-5.23-4.09-2.11-6.34l67.94-.22c2.62.17,3.38,4.17,1.6,5.68Z"/>
      <path class="cls-1" d="M61.48,79l61.59.21c2.93,1.9,1.97,6.03-1.63,6.26h-58.9c-3.91-.24-4.59-5.13-1.06-6.47Z"/>
      <path class="cls-1" d="M29.01,36.45c-3.6-3.78-3.61-9.96.04-13.73,1.07-1.1,2.59-1.46,3.61-2.55.82-4.05-1.14-15.54.67-18.57,1.46-2.46,5.45-2.02,5.91.96.8,5.11-.61,11.92.1,17.22,2.73,2.17,5.28,3.41,6.29,7.18,2.67,10.02-9.75,16.73-16.62,9.5ZM35.71,26.26c-4.49.73-3.24,7.88,1.75,6.4,3.1-.92,2.25-7.04-1.75-6.4Z"/>
      <path class="cls-1" d="M127.53,36.45c-3.6-3.78-3.61-9.96.04-13.73,1.07-1.1,2.59-1.46,3.61-2.55.82-4.05-1.14-15.54.67-18.57,1.46-2.46,5.45-2.02,5.91.96.8,5.11-.61,11.92.1,17.22,2.73,2.17,5.28,3.41,6.29,7.18,2.67,10.02-9.75,16.73-16.62,9.5ZM134.23,26.26c-4.49.73-3.24,7.88,1.75,6.4,3.1-.92,2.25-7.04-1.75-6.4Z"/>
      <path class="cls-1" d="M104.19.92c.47.43.83,1.33.91,1.98.64,5.28-.5,11.85-.03,17.27,9.13,3.18,8.56,17.39-1.04,19.02-12.47,2.13-16.73-14.2-5.47-19.02l.16-17.85c.95-2.23,3.62-3.09,5.48-1.4ZM101.51,26.28c-4.17.41-3.93,7.17,1.03,6.45,4.05-.59,2.88-6.83-1.03-6.45Z"/>
      <path class="cls-1" d="M72.43,20.36c9.07,2.94,8.06,17.27-1.12,18.83-12.58,2.13-16.87-14.23-5.47-19.02.55-5.39-.8-12.43,0-17.61.55-3.55,5.49-3.23,6.44.06l.14,17.75ZM71.47,31.85c3.47-3.79-3.56-8.18-5.45-3.72-1.56,3.67,3.15,6.23,5.45,3.72Z"/>
      <path class="cls-1" d="M62.26,137.89l45.71-.09c4.04.1,5.25,5.43,1.17,6.56l-48.31-.22c-2.79-1.9-1.88-5.65,1.43-6.25Z"/>
      <path class="cls-1" d="M35.31,98.63c1.28-.29,7.79-.25,8.87.21,2.17.92,2.5,4.65.24,5.82-1.3.67-8.28.7-9.66.14-2.81-1.13-2.37-5.51.56-6.17Z"/>
      <path class="cls-1" d="M81.49,13.19c1.19-.27,7.09-.25,8.21.09,3.03.93,2.85,5.67.09,6.29-1.22.27-7.86.26-8.98-.09-2.92-.91-2.43-5.59.68-6.29Z"/>
      <path class="cls-1" d="M48.79,13.2c2.7-.48,9.34-.89,10.25,2.3,1.44,5.06-6.94,4.52-9.96,4.16-4.02-.48-3.93-5.81-.28-6.46Z"/>
      <path class="cls-1" d="M114.2,13.19c1.45-.32,7.1-.24,8.47.22,3.13,1.04,2.63,5.73-.49,6.22-1.2.19-7.74.19-8.63-.18-2.7-1.13-2.32-5.6.65-6.26Z"/>
      <path class="cls-1" d="M35.31,79c1.32-.3,7.71-.25,8.86.21,2.23.89,2.38,4.4.46,5.65-1.38.9-8.62.9-10.09.13-2.47-1.28-2.05-5.36.77-5.99Z"/>
      <path class="cls-1" d="M35.7,118.26c1.72-.31,6.83-.31,8.34.33,2.96,1.26,2.41,5.6-.75,6.1-1.2.19-7.74.19-8.63-.18-2.65-1.1-2.27-5.66,1.04-6.25Z"/>
      <path class="cls-1" d="M34.92,59.37c.81-.24,8.27-.24,9.08,0,2.12.62,2.53,4.26.79,5.64-1.48,1.17-7.87,1.12-9.65.53-3.01-1-2.8-5.42-.22-6.16Z"/>
      <path class="cls-1" d="M36.09,137.89c1.87-.31,6.88-.34,8.46.59,2.19,1.29,1.58,5.38-.86,5.85-1.05.2-8.22.14-9.03-.19-2.81-1.17-2.26-5.64,1.43-6.25Z"/>
    </g>
  </g>
</svg>