<?xml version="1.0" encoding="UTF-8"?>
<svg id="_圖層_2" data-name="圖層 2" xmlns="http://www.w3.org/2000/svg" viewBox="0 0 307.21 293.59">
  <defs>
    <style>
      .cls-1 {
        fill: #fff;
      }
    </style>
  </defs>
  <g id="_圖層_1-2" data-name="圖層 1">
    <path class="cls-1" d="M141.31.34c63.23-3.92,137.47,26.54,159.61,89.97,26.79,76.75-37.18,128.93-92.6,167.92-14.49,10.2-37.64,26.9-53.62,33.21-23.51,9.29-12.05-13.62-11.7-26.67.09-3.55-.14-8.23-2.65-10.89-4.88-5.17-30.62-8.33-39.3-10.85C36.52,224.23-16.97,164.36,5.03,93.86,22.7,37.25,84.88,3.83,141.31.34ZM111,90.92c-1.18,1.27-1.61,3.63-1.77,5.35-1.82,19.96,1.45,42.67.02,62.93,1.06,8.94,14.61,8.97,15.67-.08-1.51-19.88,2.26-43.36.07-62.81-.81-7.2-9.2-10.55-13.99-5.38ZM225.3,104.91h22.83c.68,0,4.16-1.9,4.9-2.58,4.6-4.22,2.16-11.99-3.76-13.53-4.27-1.11-27.47-.94-32.58-.35-4.31.49-7.84,3.21-7.9,7.82,1.46,20.02-1.82,42.48,0,62.2.46,5.02,3.26,6.92,8.09,7.63,6.21.91,24.09.9,30.3,0,5.61-.82,8.96-3.89,8.02-9.86-.38-2.37-4.03-6.41-6.32-6.41h-23.58v-14.22h22.83c6.15,0,9.93-8.27,5.97-13.46-.55-.72-4-3.01-4.48-3.01h-24.33v-14.22ZM96.17,150.57c-6.48-1.39-17.67,1.03-24.7,0l-1.12-1.12v-55.39c0-.85-2.89-3.87-3.94-4.3-4.83-1.97-10.2.19-11.63,5.2,1.14,20.38-2.04,43.44-.19,63.5.33,3.55,2.67,7.18,6.44,7.78,4.78.76,29.7.78,34.22-.13,7.86-1.58,7.38-14.16.92-15.55ZM181.88,134.1l-32.16-43.07c-7.94-5.03-12.81-.13-13.53,8.24-1.61,18.75,1.09,39.96.22,58.97.29,7.82,10.3,11.26,14.77,4.68.36-.53,1.5-2.65,1.5-2.99v-39.3l31.14,42.59c5.34,5.14,13.6,3.04,14.54-4.77l-.19-62.72c-1.28-6.3-9.85-8.72-14.08-3.94-.62.7-2.22,4.6-2.22,5.27v37.05Z"/>
  </g>
</svg>