<?xml version="1.0" encoding="UTF-8"?>
<svg id="_圖層_2" data-name="圖層 2" xmlns="http://www.w3.org/2000/svg" viewBox="0 0 143.13 143.12">
  <defs>
    <style>
      .cls-1 {
        fill: #1a6f67;
      }

      .cls-2 {
        fill: #df9f0b;
      }
    </style>
  </defs>
  <g id="_圖層_1-2" data-name="圖層 1">
    <g>
      <path class="cls-2" d="M77.19,0l12.41,2.26c4.94,1.4,9.83,3.1,14.41,5.42,1.81.91,7.03,3.55,7.43,5.44.59,2.83-2.16,3.42-3.78,4.65-1.52,1.16-2.8,2.89-3.39,4.71-.84,2.58-.66,6.35-4.92,4.67-3.3-1.3-6.37-3.5-10-4.8C42.31,5.52.64,58.13,27.8,100.15c1.09,1.68,4.81,5.77,5.09,7.23.24,1.27-.92,7.35-1.31,8.95-1.06,4.33-4.15,2.96-7.89,3.01-1.73.02-3,.64-4.93-.07-1.32-.49-4.39-4.74-5.36-6.09-5.07-7.11-9.05-15.56-11.16-24.06-.96-3.86-1.38-7.8-2.14-11.69.22-3.82-.3-7.96,0-11.74C2.81,31.27,31.67,2.52,66.02,0h11.17ZM102.33,13.7C74.55-.76,40.95,6.04,21.05,30.05,2.78,52.1,1.35,84.15,17.24,107.93c.51.76,3.38,4.87,3.81,5.13.75.46,3.67,0,4.71.1.18-.12.89-3.87.82-4.23-.1-.49-3.75-5.15-4.42-6.21C4.25,74.43,14.1,36.73,43.11,20.54c17.21-9.61,37.84-9.81,55.42-.99l3.8-5.85Z"/>
      <path class="cls-2" d="M115.4,22.16c1.59-.12,6.58-.37,7.81.13,1.3.53,5.79,6.49,6.84,7.97,22.8,32.34,14.99,76.82-17.01,99.66-22.42,15.99-52.52,17.6-76.53,4.01-1.32-.75-4.74-2.63-5.66-3.56-1.3-1.33-1.22-3.58.27-4.71,2.53-1.92,4.47-1.87,5.99-5.47.8-1.91.56-4.83,2.93-5.45s4.2,1.51,6.15,2.53c50.99,26.83,101.24-32.88,65.92-78.82-.93-1.21-2.88-2.68-3.05-4.23-.12-1.16.97-8.91,1.41-10,.86-2.16,2.95-1.9,4.94-2.04ZM42.59,122.74c-.14.09-1.03,2.24-1.48,2.85-.39.53-2.28,2.17-2.19,2.56,29.62,17.36,67.9,8.24,86.93-20.06,16.53-24.57,14.35-57.5-5.09-79.72l-4.72-.11c-.16.14-.64,3.83-.59,4.28.09.79,3.38,4.58,4.13,5.67,33.25,48.02-17,109.81-71.09,87.06-1.44-.61-3.61-2.02-4.83-2.44-.3-.1-.84-.25-1.09-.09Z"/>
      <path class="cls-1" d="M62.38,37.45c.28,1.3,1.85,3.36,2.8,4.34.21.21.22.65.27.7-4.52,3.25-9.43,6.09-14.2,8.99.16,1.51.39,2.74-.07,4.24l14.46,9.07c.57.1,2.28-1.43,2.88-1.62,1.28-.41,4.87-.41,6.15,0,.61.2,2.31,1.72,2.88,1.62l14.46-9.07c-.46-1.51-.23-2.74-.07-4.24l-14.2-8.99s.06-.48.27-.7c.95-.97,2.52-3.03,2.8-4.34l13.96,8.54c1.06.39,1.88-.67,2.89-1.05,3.65-1.36,8.06-.32,10.52,2.71,4.22,5.2,2.02,12.69-4.2,14.84l.02,15.2c-1.41-.41-4.76-.45-6.15,0v-15.19c-1.07-.47-2.15-1.7-3.34-1.16l-13.64,8.57c-.2,1.08.04,2.22-.06,3.3-.15,1.56-1.43,4.49-2.51,5.59-.77.78-2.66,1.59-3.64,2.14v14.51c-.25.8,2.69,2.08,3.09,1.97l14.24-8.83c.33,1.54,1.85,4.35,3.07,5.31l-14.2,8.71c1.14,7.63-5.53,13.89-12.99,10.82-4.43-1.83-5.98-6.28-5.53-10.82l-14.2-8.71c1.22-.96,2.74-3.77,3.07-5.31l14.24,8.83c.61.19,3.18-1.11,3.09-1.97v-14.51c-.99-.55-2.88-1.36-3.65-2.14-1.08-1.1-2.37-4.03-2.51-5.59-.1-1.08.14-2.22-.06-3.3l-13.64-8.57c-1.19-.54-2.27.69-3.35,1.16v15.19c-1.38-.45-4.72-.41-6.13,0l.02-15.2c-10.79-4.1-6.96-19.7,4.8-17.99,1.59.23,3.27,1.79,4.41,1.48l13.96-8.54ZM41.07,50.65c-2.75.63-2.69,5.32,0,6.02,5.47,1.41,5.69-7.32,0-6.02ZM100.01,50.65c-2.95.67-2.83,6.01.78,6.11,4.94.14,4.36-7.29-.78-6.11ZM70.68,69.1c-3.66.84-2.45,7.37,2.05,5.96,3.31-1.03,2.28-6.96-2.05-5.96ZM70.97,101.8c-4.61.89-2.16,8.33,2.22,5.87,2.96-1.66,1.39-6.56-2.22-5.87Z"/>
      <path class="cls-2" d="M80.82,37.45c-.28,1.3-1.85,3.36-2.8,4.34-.21.21-.22.65-.27.7-.38.34-3.01,1.29-3.08,1.58v19.1c-1.26-.41-4.86-.41-6.13,0v-19.1c-.06-.3-2.7-1.24-3.07-1.58-.05-.04-.06-.48-.27-.7-.95-.97-2.52-3.03-2.8-4.34-1.19-5.55,3.14-11.25,8.79-11.47,6.03-.24,10.93,5.51,9.65,11.47ZM70.98,32.2c-3.95.64-2.94,7.06,1.55,6.03,3.35-.77,2.78-6.73-1.55-6.03Z"/>
      <path class="cls-2" d="M64.9,78.82l-13.36,6.47c-.02,1.13-.09,2.2-.32,3.31-.33,1.54-1.85,4.35-3.07,5.31-6,4.71-15.19.48-15.37-7.14-.09-3.7,2.85-8.03,6.43-9.07,1.42-.41,4.75-.45,6.15,0,1.01.33,2.7,2.1,3.7,1.91l13.34-6.38c.15,1.56,1.43,4.49,2.51,5.59ZM39.85,88.79c2.92,3.06,7.66-1.58,4.39-4.53-2.92-2.63-7.17,1.61-4.39,4.53Z"/>
      <path class="cls-2" d="M97.86,77.7c1.39-.45,4.73-.41,6.15,0,3.55,1.03,6.56,5.39,6.43,9.07-.26,7.62-9.34,11.88-15.37,7.14-1.22-.96-2.74-3.77-3.07-5.31-.24-1.11-.31-2.18-.32-3.31l-13.36-6.47c1.08-1.1,2.37-4.03,2.51-5.59l13.34,6.39c1.17.19,2.64-1.57,3.7-1.91ZM103.35,88.79c2.78-2.92-1.46-7.16-4.39-4.53-3.28,2.95,1.47,7.59,4.39,4.53Z"/>
    </g>
  </g>
</svg>