<?xml version="1.0" encoding="UTF-8"?>
<svg id="_圖層_2" data-name="圖層 2" xmlns="http://www.w3.org/2000/svg" viewBox="0 0 143.13 143.13">
  <defs>
    <style>
      .cls-1 {
        fill: #1a6f67;
      }

      .cls-2 {
        fill: #df9f0b;
      }
    </style>
  </defs>
  <g id="_圖層_1-2" data-name="圖層 1">
    <g>
      <path class="cls-1" d="M74.07,0c6.95,1.28,12.92,5.61,15.51,12.3,2.07,5.36,1.54,10.16-.56,15.36-1.18,2.94-.88,2.23-1.29,5.42-.38,2.92-1.72,5.9-3.59,8.14,4.22,1.59,7.8,3.37,10.4,7.2,1.04,1.53,3.01,5.56,3.01,7.33v12.72c3.26.01,6.53-.01,9.78,0,2.05,0,4.1,0,6.15,0,4.84,0,9.7-.06,14.53,0,2,.02,4.19-.14,6.15,0,12.02.85,11.77,17.69,0,18.45v53.25c-.19,1.63-1.29,2.74-2.93,2.93H12.43c-2,.13-3.5-1.19-3.49-3.21v-52.98c-4.43-.07-7.6-3.25-8.93-7.27v-3.91c1.97-5.34,4.8-7.06,10.34-7.27,2.04-.08,4.11.02,6.15,0s4.1.01,6.15,0,4.1,0,6.15,0c5.59,0,11.18,0,16.77,0v-12.72c0-1.77,1.97-5.8,3.01-7.33,2.6-3.83,6.18-5.61,10.4-7.2-1.88-2.24-3.22-5.22-3.59-8.14-.41-3.19-.1-2.48-1.29-5.42-3.73-9.28-1.49-19.47,7.32-24.82,2.27-1.38,4.59-2.02,7.07-2.85h5.59ZM58.7,22.08h9.08c.92,0,4.13-1.65,4.98-2.28,2.04-1.51,3.22-5.15,5.66-5.25s4.09,4.52,6.26,5.57c-.02-19.83-28.92-17.69-25.99,1.96ZM61.49,28.23v4.61c0,3.86,5.49,7.89,9.12,8.21,8.78.77,12.05-7.4,11.02-14.93-.15-1.06-2.28-2.44-3.19-3.18-1.46,1.32-3.24,2.82-5.02,3.66-.84.4-4.34,1.63-5.08,1.63h-6.85ZM59.54,47.8c-3.26.94-7.83,4.92-7.83,8.53v12.16c5.59,0,11.18,0,16.77,0,2.05,0,4.1,0,6.15,0,5.59,0,11.18,0,16.77,0v-12.16c0-3.63-4.54-7.58-7.83-8.53-2.55-.74-4.13-.51-6.71-.56-3.52-.07-7.1-.07-10.62,0-2.58.05-4.16-.18-6.71.56ZM8.59,74.69c-3.13.94-3.27,4.83-.21,5.95h126.35c2.96-1.07,2.95-4.82,0-5.89l-126.14-.07ZM128.02,86.93H15.09v50.03h112.92v-50.03Z"/>
      <path class="cls-2" d="M0,32.7c.82-1.43,1.5-2.05,3.21-2.24,10.15-1.13,22.35.86,32.71,0,1.83-.02,3.36,1.43,3.48,3.23-.54,8.12.72,17.16.01,25.17-.07.76-.25,1.75-.72,2.36-.21.27-1.49,1.12-1.67,1.12h-8.25v6.15c-2.05,0-4.1-.01-6.15,0v-6.15h-6.15v6.15c-2.04.02-4.11-.08-6.15,0v-6.15H2.38c-.77,0-2-1.57-2.38-2.24v-27.39ZM33.26,56.18v-19.15s-.39-.42-.42-.42H6.15v19.57h27.11Z"/>
      <path class="cls-2" d="M131.93,0c.4.43.94.58,1.41.97,1.99,1.66,7.49,6.99,8.93,8.95,1.23,1.67,1.1,2.74-.13,4.34-5.46,4.55-10.46,11.64-15.95,15.92-9.83,7.68-17.32-5.33-23.74-10.91-.98-1.75-.47-2.93.68-4.33.94-1.14,8.78-8.95,9.52-9.2,3.68-1.25,4.56,3.02,7.34,4.01l10.26-9.75h1.68ZM130.99,7.57l-9.75,9.55c-3.53,1.44-4.83-2.59-7.34-3.99-.31,0-3.75,3.29-4.07,3.77-.19.28-.34.41-.23.8.14.54,7.07,7.3,7.87,7.81,1.47.94,2.73,1.05,4.32.27l13.76-13.65c.06-.36-4.2-4.62-4.55-4.55Z"/>
      <path class="cls-2" d="M107.33,68.48c-.39-5.42,2.77-10.36,7.55-12.71.66-.32,2.6-.72,2.76-1.16.96-2.71-2.73-1.5-4.24-1.84-2.85-.64-2.9-5.71,1.33-6.1,2.95-.28,8.8-.26,11.76,0,2.08.18,3.66,1.23,3.5,3.5-.06.85-1.39,2.66-2.11,2.66h-4.05c.06.56-.18,1.51.13,1.97.14.22,3.74,1.56,4.72,2.27,3.52,2.6,5.71,7.03,5.5,11.41-1.96-.14-4.15.02-6.15,0,.12-10.38-14.9-10.39-14.53,0-2.05,0-4.1,0-6.15,0Z"/>
      <path class="cls-2" d="M66.24,47.24l5.45,8.95,5.17-8.95c2.58.05,4.16-.18,6.71.56l-8.82,15.36-.13,5.32c-2.05,0-4.1,0-6.15,0l-.13-5.32-8.82-15.36c2.55-.74,4.13-.51,6.71-.56Z"/>
      <path class="cls-1" d="M120.93,94.01c.42.4.9,1.38.94,1.99-.74,10.14.96,21.62,0,31.61-.24,2.54-1.77,3.05-4.06,3.21H25.01c-1.62-.14-3.09-.58-3.63-2.24l-.14-32.58c.4-2.47,2.16-2.79,4.33-2.94h91.98c1.07.08,2.59.2,3.38.95ZM115.72,99.51H27.39v24.88h88.33v-24.88Z"/>
    </g>
  </g>
</svg>