<?xml version="1.0" encoding="UTF-8"?>
<svg id="_圖層_2" data-name="圖層 2" xmlns="http://www.w3.org/2000/svg" viewBox="0 0 143.12 143.12">
  <defs>
    <style>
      .cls-1 {
        fill: #1a6f67;
      }

      .cls-2 {
        fill: #df9f0b;
      }
    </style>
  </defs>
  <g id="_圖層_1-2" data-name="圖層 1">
    <g>
      <path class="cls-1" d="M72.39,0c2.15,1.37,3.98,3.71,5.58,5.74,6.59,8.38,11.11,18.34,12.9,28.89l33.62.06c6.23,1.09,9.81,5.63,10.24,11.84v73.38s6,0,6,0c2.19,0,2.47,3.31,2.37,4.89-.61,9.49-9.17,17.67-18.57,18.32l-106.47-.05c-9.27-1.05-16.19-8.03-18.06-17.01v-4.19c.37-.43,1.6-1.96,2.1-1.96h6.29V46.53c.41-6.23,3.97-10.75,10.23-11.84l33.62-.06c1.7-9.82,5.72-19.36,11.65-27.34,1.89-2.54,4.28-5.49,6.82-7.29h1.68ZM60.93,26.27c-.73,2.09-1.46,3.95-1.96,6.15-2.05,9.17-1.71,18.53.28,27.67.5,2.28,1.27,4.26,1.96,6.43.08.26,0,.71.13,1.12,1.08,3.27,2.49,6.41,3.76,9.61.39.51,11.27,0,12.84.13,1.19-3.11,2.63-6.15,3.69-9.31.2-.58.15-1.17.27-1.55.69-2.17,1.46-4.15,1.96-6.43,1.98-9.11,2.31-18.54.28-27.67-.48-2.15-1.23-4.09-1.96-6.15-.91-2.61-1.73-4.97-3.03-7.46-.73-1.4-6.65-10.79-7.46-10.99-.47-.12-3.13,3.56-3.6,4.22-3.3,4.65-5.3,8.89-7.16,14.22ZM59.82,81.34c-.14-1.7-.91-2.88-1.4-4.47-.55-.42-5.87,5.96-6.97,6.3-3.38,1.05-5.38-2.05-3.49-4.89,1.08-1.62,7.52-6.91,7.68-8-3.06-9.5-4.62-19.45-4.2-29.47H19.15c-1.09,0-4.33,2.71-4.33,3.77v75.33c3.72,0,7.46-.01,11.18,0,2.05,0,4.1,0,6.15,0,26.36.04,52.74.04,79.1,0,2.05,0,4.1,0,6.15,0,3.63-.01,7.27,0,10.9,0V44.58c0-1.06-3.24-3.77-4.33-3.77h-32.28c.41,10.02-1.15,19.98-4.2,29.47,1.28,2.5,7.82,6.87,8.33,9.3.56,2.71-1.54,4.4-4.14,3.59-1.46-.46-5.85-6.31-6.83-6.31-.72,1.34-1.15,2.82-1.82,4.2-1.51,3.11-3,2.42-6.15,2.52-3.44.11-7.18.1-10.62,0-2.76-.08-4.69.41-6.43-2.24ZM136.4,126.06H6.71c.89,6.04,6.53,10.3,12.44,10.9,35.64-.22,71.38.47,106.97-.35,5.01-1.32,9.54-5.26,10.28-10.54Z"/>
      <path class="cls-2" d="M83.01,81.06c.97,2.11-.41,11.63.41,12.87.47.72,2.57.44,3.34.58,5.26.97,9.3,3.96,11.82,8.66,9.93-2.04,19.88,6.57,18.82,16.75-2.05,0-4.1,0-6.15,0,.79-6.2-4.58-11.41-10.73-10.87-1.15.1-2.35.73-3.39.81-3.45.27-3.28-2.58-4.66-4.84-.92-1.49-2.36-2.85-3.95-3.6-2.8-1.33-5.65-.33-8.39-2.23-4.84-3.36-2.84-10.57-3.26-15.61,3.15-.1,4.64.59,6.15-2.52Z"/>
      <path class="cls-2" d="M66.24,83.57c-.4,5,1.53,12.28-3.26,15.61-3.26,2.27-6.75.53-10.41,3.56-2.49,2.07-2.25,4.13-3.7,6.09-1.59,2.14-4.27.39-6.28.22-6.13-.54-11.25,4.75-10.45,10.87-2.05,0-4.1,0-6.15,0-.99-10.17,8.5-18.78,18.54-16.75,2.52-4.69,6.55-7.69,11.82-8.66.76-.14,2.86.14,3.34-.58.35-.53.25-11.19.13-12.59,1.74,2.65,3.67,2.16,6.43,2.24Z"/>
      <path class="cls-2" d="M83.85,60.09c-.5,2.28-1.27,4.25-1.96,6.43h-20.68c-.68-2.17-1.46-4.15-1.96-6.43h24.6Z"/>
      <path class="cls-2" d="M82.18,26.27c.72,2.06,1.48,4,1.96,6.15h-25.16c.49-2.2,1.23-4.05,1.96-6.15h21.24Z"/>
      <path class="cls-1" d="M71.2,43.39c4.38-.38,4.49,6.2.47,6.35s-4.22-6.02-.47-6.35Z"/>
    </g>
  </g>
</svg>