<?xml version="1.0" encoding="UTF-8"?>
<svg id="_圖層_2" data-name="圖層 2" xmlns="http://www.w3.org/2000/svg" xmlns:xlink="http://www.w3.org/1999/xlink" viewBox="0 0 89.42 89.42">
  <defs>
    <style>
      .cls-1 {
        fill: url(#_未命名漸層_22);
      }

      .cls-2 {
        fill: #fff;
      }

      .cls-3 {
        fill: #f2f2f2;
      }
    </style>
    <radialGradient id="_未命名漸層_22" data-name="未命名漸層 22" cx="49.71" cy="30.25" fx="49.71" fy="30.25" r="37.07" gradientUnits="userSpaceOnUse">
      <stop offset="0" stop-color="#356cb4"/>
      <stop offset=".34" stop-color="#2a4b9a"/>
      <stop offset="1" stop-color="#29306c"/>
    </radialGradient>
  </defs>
  <g id="_圖層_1-2" data-name="圖層 1">
    <g>
      <circle class="cls-3" cx="44.71" cy="44.71" r="44.71"/>
      <g>
        <circle class="cls-1" cx="44.71" cy="44.71" r="30"/>
        <g>
          <path class="cls-2" d="M36.78,52.13c1.32-.11,2.21-.29,2.65-.54.67-.37,1.17-1.18,1.5-2.4l2.42-8.84-3.59-11c-.33-1.01-.68-1.69-1.03-2.01-.35-.33-1.01-.51-1.98-.55v-1.06h11.5v1.06c-1,.04-1.73.14-2.17.31s-.67.56-.67,1.16c0,.17.02.39.07.65.05.26.12.54.21.82l2.93,8.96,5.37-7.6c.28-.4.51-.76.68-1.09.27-.55.4-1.06.4-1.52,0-.7-.3-1.17-.9-1.42-.36-.14-.99-.24-1.88-.28v-1.06h8.55v1.06c-.59.09-1.11.28-1.56.57-.72.44-1.45,1.18-2.2,2.22l-7.76,10.98-2.04,7.59c-.09.31-.19.7-.29,1.17-.1.47-.15.81-.15,1.01,0,.73.27,1.22.82,1.46.36.16,1.15.27,2.37.34v1.06h-13.23v-1.06Z"/>
          <path class="cls-2" d="M49.11,43.2c-1.02-1.06-2.31-1.58-3.87-1.58-3.18,0-5.95,2.11-8.3,6.34-2.11,3.77-3.17,7.61-3.17,11.53,0,2.85.65,4.8,1.95,5.84,1.3,1.05,2.72,1.57,4.26,1.57,2.01,0,3.9-.66,5.67-1.99.96-.72,1.93-1.69,2.89-2.91l1.24.9c-1.42,2.09-3.1,3.64-5.05,4.65-1.95,1.02-3.93,1.52-5.93,1.52-3.29,0-6.01-.97-8.15-2.9-2.14-1.93-3.22-4.51-3.22-7.75,0-4.95,1.64-9.23,4.93-12.85,3.29-3.64,7.19-5.45,11.71-5.45,1.4,0,2.85.2,4.34.6,1.49.4,1.7.69,2.39,1.1.48.28,1.75,1.37,1.75,1.37l-2.39.98-1.06-.99Z"/>
        </g>
      </g>
    </g>
  </g>
</svg>