<?xml version="1.0" encoding="UTF-8"?>
<svg id="_圖層_2" data-name="圖層 2" xmlns="http://www.w3.org/2000/svg" xmlns:xlink="http://www.w3.org/1999/xlink" viewBox="0 0 200.27 200.27">
  <defs>
    <style>
      .cls-1 {
        fill: none;
      }

      .cls-2 {
        fill: #d06c15;
      }

      .cls-2, .cls-3 {
        fill-rule: evenodd;
      }

      .cls-4 {
        clip-path: url(#clippath);
      }
    </style>
    <clipPath id="clippath">
      <rect class="cls-1" width="200.27" height="200.27"/>
    </clipPath>
  </defs>
  <g id="_圖層_1-2" data-name="圖層 1">
    <g>
      <g class="cls-4">
        <path class="cls-2" d="M102.96,117.27h20.83c6.4,0,12.81-1.3,17.97-5.29,4.29-3.32,6.38-7.58,6.21-13.01-.16-5.22-2.16-9.36-6.38-12.48-5.06-3.74-11.65-4.79-17.8-4.79h-20.83v35.57ZM100.06-.09c55.3,0,100.14,44.83,100.14,100.14,0,29.96-13.16,56.84-34.02,75.2l-30.81-43.41c7.22-1.57,13.78-4.78,19.29-9.97,6.59-6.22,10.09-13.9,10.04-23-.04-6.67-2.15-12.35-5.87-17.16h18.48v-15.76h-52.38c-.37,0-.75,0-1.13,0h-37.55v49.83c-13.69-4.96-24.17-16.64-26.36-31.48-3.23-21.89,12.8-42.34,35.82-45.68,12.5-1.81,24.48,1.79,33.34,8.97l10.74-11.26c-11.61-7.62-16.49-12.75-39.39-13.6-29.69.42-56.63,24.92-56.63,55.67,0,25.94,18.05,47.74,42.47,53.91v47.08h22.11c10.67,0,15.81-3.6,15.81-14.35h-21.2v-32h15.24l26.41,37.19.26.36c4.27,5.87,8.28,7.95,16.59,8.57-16.96,13.18-38.26,21.03-61.4,21.03C44.76,200.18-.08,155.34-.08,100.04S44.76-.09,100.06-.09Z"/>
      </g>
      <path class="cls-3" d="M177.3,65.94h-52.38c-.37,0-.75,0-1.13,0h-37.55v49.83c-13.69-4.96-24.17-16.64-26.36-31.48-3.23-21.89,12.8-42.34,35.82-45.68,12.5-1.81,24.48,1.79,33.34,8.97l10.74-11.26c-11.61-7.62-16.49-12.75-39.39-13.6-29.69.42-56.63,24.92-56.63,55.67,0,25.94,18.05,47.74,42.47,53.91v47.08h22.11c10.67,0,15.81-3.6,15.81-14.35h-21.2v-32h15.24l26.41,37.19.26.36c4.27,5.87,8.28,7.95,16.59,8.57l4.72-3.91-30.81-43.41c7.22-1.57,13.78-4.78,19.29-9.97,6.59-6.22,10.09-13.9,10.04-23-.04-6.67-2.15-12.35-5.87-17.16h18.48v-15.76ZM141.76,111.97c-5.16,3.99-11.57,5.29-17.97,5.29h-20.83v-35.57h20.83c6.15,0,12.74,1.05,17.8,4.79,4.22,3.11,6.21,7.25,6.38,12.48.17,5.43-1.92,9.69-6.21,13.01Z"/>
    </g>
  </g>
</svg>