<?xml version="1.0" encoding="UTF-8"?>
<svg id="_圖層_2" data-name="圖層 2" xmlns="http://www.w3.org/2000/svg" viewBox="0 0 62.35 63.32">
  <defs>
    <style>
      .cls-1 {
        fill: #1a6f67;
      }

      .cls-2 {
        fill: #df9f0b;
      }
    </style>
  </defs>
  <g id="_圖層_1-2" data-name="圖層 1">
    <g>
      <path class="cls-1" d="M38.81,0v7.72c0,.27.56,1.22.79,1.46.25.26,1.21.85,1.52.85h7.72v24.07c-.4.37-1.11.15-1.65.2-1.18.11-2.63.73-3.56.79-.38.02-.02-.25-.07-.58s-.28-.6-.53-.8l-36.87-.07c-1.27.17-.92,1.99-.26,1.99h36.21c-.73.59-1.59.98-2.36,1.53-.87.62-1.61,1.39-2.46,2.03H6.29c-1.57.18-1.05,2.11-.13,2.11h29.61c-.66,1.1-1.27,2.21-1.66,3.44H6.29c-.81.04-1.25.83-.92,1.57.05.12.57.53.66.53h27.5l-.26,3.43H6.17c-.92,0-1.44,1.93.13,2.11h27.03s1.08,3.29,1.08,3.29l-.14.27H5.9c-.67,0-1.01,1.82.26,1.99l29.27.02c1,1.29,1.96,2.58,3.19,3.67l2.31,1.71H.89c-.16,0-.96-.69-.86-.98V1.11C-.15.76.69,0,.89,0h37.92ZM14.06,24.09c1.51,1.48,2.86.11,4.5.04,1.28-.05,2.57.82,3.64.61,1.62-.32,1.88-2.21,3.09-3.11.86-.63,2.34-.77,2.95-1.67.88-1.31.08-2.48.18-3.77s1.45-2.44,1.28-3.85c-.19-1.55-1.73-1.88-2.37-3.04-.47-.86-.47-1.97-.85-2.84-.8-1.8-2.73-1.13-4.26-1.54-1.2-.32-2.16-1.99-3.64-1.88-1.27.09-2.21,1.58-3.27,1.89-1.21.35-2.83-.08-3.81.81s-.71,2.51-1.33,3.55c-.46.78-1.98,1.66-2.25,2.49-.59,1.8.82,2.62,1.05,4.02.22,1.27-.48,2.81.14,3.95s2.34,1.23,3.33,2.08c.74.64,1,1.64,1.63,2.26ZM29.05,27.44l-1.92-4.34c-.98.28-1.27,1.37-1.84,2.09-.81,1.01-1.9,1.66-3.22,1.73l1.19,2.9,2.07-3.17,3.73.8ZM15.99,26.91c-1.24.08-2.62-.43-3.48-1.33-.27-.29-1.47-2.47-1.79-2.23l-2.24,5.01,3.8-.5,1.8,3.14,1.91-4.09Z"/>
      <path class="cls-2" d="M47.89,36.32c9.37-.72,16.53,8.34,13.91,17.34-3.07,10.54-17.04,13.13-23.7,4.37s-.89-20.89,9.79-21.71ZM54.74,43.82c-1.04.15-1.45,1-2.08,1.62l-5.61,5.6c-.27,0-2.91-3.38-3.97-3.55-1.75-.28-2.95,1.23-2.19,2.85,1.6,1.41,3.31,3.83,4.97,5.05.93.68,1.84.47,2.71-.19l8.18-8.44c.84-1.41-.4-3.18-2.01-2.94Z"/>
      <path class="cls-1" d="M48.71,7.91h-7.45s-.33-.31-.33-.33V.13l7.78,7.78Z"/>
      <path class="cls-1" d="M23.33,9.28c5.83,5.83-2.49,15-8.85,9.58-6.72-5.72,2.57-15.86,8.85-9.58ZM21.76,10.84c-.19.03-.52.25-.69.37l-3.56,3.29c-.71-.67-1.77-2.18-2.71-.99-.38.48-.3.71-.02,1.22.33.6,2.3,2.72,3.09,2.12l4.91-4.45c.31-.73-.18-1.67-1.02-1.56Z"/>
    </g>
  </g>
</svg>