<?xml version="1.0" encoding="UTF-8"?>
<svg id="_圖層_2" data-name="圖層 2" xmlns="http://www.w3.org/2000/svg" viewBox="0 0 65.64 64.4">
  <defs>
    <style>
      .cls-1 {
        fill: #1a6f67;
      }

      .cls-2 {
        fill: #df9f0b;
      }
    </style>
  </defs>
  <g id="_圖層_1-2" data-name="圖層 1">
    <g>
      <path class="cls-2" d="M42.04,19.11v8.57h-18.47v-8.57c-2.19.82-3.82,1.55-5.92.05-.96-.69-4.92-4.16-5.55-5-1.9-2.53.53-5.8,3.4-4.85,1.34.44,3.6,2.87,4.92,3.79.23.16.47.34.73.45,1.64-.53,3.75-2.32,5.53-2.09.45.06,1.4,1.06,1.92,1.38,2.97,1.85,6.55,1.51,9.28-.59.23-.18.54-.63.73-.72,1.33-.61,4.42,1.82,5.83,2.02l4.89-3.96c2.61-1.53,5.72,1.21,4.41,4.01-.24.51-.69.9-1.08,1.29-1.04,1.03-4.87,4.57-6.01,4.94-1.78.58-2.97-.21-4.61-.72Z"/>
      <path class="cls-1" d="M19.09,51.03c-.39-.36-2.04-.99-2.11-1.38v-10.75c-1.75.08-3.69-1.6-4.03-3.29-.18-.89-.17-4.01-.06-4.96.09-.79.53-.92,1.25-.99h37.47c.49-.03.98.27,1.09.76.15.66.12,4.36,0,5.09-.29,1.71-2.28,3.51-4.06,3.39v10.75c-.07.39-1.72,1.03-2.11,1.38v-12.14h-27.44v12.14Z"/>
      <path class="cls-1" d="M28.28,51.33c.19,0,1.76.89,2.31,1.05,1.61.46,2.92.45,4.52-.03.48-.15,2.08-1.03,2.22-1.03.37.02,1.66.64,2.03.87,3.91,2.37,4.39,6.7,4,10.91-.05.51-.15.84-.66,1.06h-19.8c-.42-.18-.6-.47-.66-.93-.41-3.52-.03-7.71,2.77-10.16.58-.51,2.54-1.74,3.26-1.74Z"/>
      <path class="cls-1" d="M6,51.32c.36-.03,1.14.56,1.57.75,1.76.75,3.45.87,5.29.32.86-.25,1.49-.78,2.3-1.07,3.39,1.02,5.67,4.04,5.91,7.56.06.92.13,3.79-.07,4.56-.16.6-.49.74-1.05.79-5.94.55-12.71-.43-18.74,0-.53,0-1.05-.29-1.12-.86-.17-1.29-.09-4.89.2-6.14.65-2.77,3-5.11,5.71-5.91Z"/>
      <path class="cls-1" d="M50.58,51.32c.79.32,1.35.78,2.21,1.04,1.6.48,2.91.49,4.52.03.55-.16,2.12-1.05,2.31-1.05,1.18,0,3.44,1.89,4.18,2.8,1.92,2.39,1.99,6.01,1.72,8.97-.05.51-.15.84-.66,1.06h-19.54c-.37-.18-.71-.5-.78-.94-.2-1.26-.07-4.58.21-5.84.65-2.92,2.96-5.25,5.82-6.07Z"/>
      <path class="cls-2" d="M32.38.02c6.89-.56,8.91,9.62,2.2,11.56C26.21,14,23.95.71,32.38.02Z"/>
      <path class="cls-1" d="M54.28,39.46c7.01-.96,8.87,9.35,2.15,10.98-7.71,1.87-9.66-9.95-2.15-10.98Z"/>
      <path class="cls-1" d="M31.98,39.46c7.57-1.04,8.74,10.7,1.15,11.18-7.08.45-7.93-10.25-1.15-11.18Z"/>
      <path class="cls-1" d="M14.43,41.05c4.85,4.99-1.82,12.65-7.27,8.39-6.29-4.91,1.92-13.9,7.27-8.39Z"/>
    </g>
  </g>
</svg>