<?xml version="1.0" encoding="UTF-8"?>
<svg id="_圖層_2" data-name="圖層 2" xmlns="http://www.w3.org/2000/svg" viewBox="0 0 63.56 64.86">
  <defs>
    <style>
      .cls-1 {
        fill: #1a6f67;
      }

      .cls-2 {
        fill: #df9f0b;
      }
    </style>
  </defs>
  <g id="_圖層_1-2" data-name="圖層 1">
    <g>
      <path class="cls-1" d="M40.23,23.1h-2.84c-.14,0-1.03-.28-1.21-.37-.71-.34-1.53-1.4-1.63-2.2V3.91c.21-1.4,1.45-2.45,2.83-2.58h23.1c2.01.25,2.83,1.6,2.97,3.5-.26,4.79.33,9.91,0,14.65-.15,2.08-1.05,3.42-3.24,3.62l-13.95.03-5.05,4.99c-.26.17-.98-.29-.98-.46v-4.55ZM48.51,4.15c-5.51.62-8.6,6.95-6.11,11.84,2.98,5.84,11.55,5.84,14.52,0s-1.81-12.58-8.41-11.84Z"/>
      <path class="cls-2" d="M44.95,49.79c8.11-.67,15.88,4.54,17.93,12.46.21.83.7,2.02-.26,2.57l-32.16.04c-.41-.18-.74-.57-.74-1.04,0-.74.65-2.63.95-3.39,2.27-5.82,8.03-10.13,14.28-10.65Z"/>
      <path class="cls-1" d="M18.7.06c9.3-.96,15.06,9.96,8.8,16.98-5,5.62-14.31,4.02-17.11-2.95C7.89,7.86,12.01.75,18.7.06Z"/>
      <path class="cls-2" d="M45.21,31.32c9.68-1.09,13.6,11.47,5.48,16.03-6.74,3.78-14.6-2.56-12.47-9.97.86-3.01,3.86-5.71,7-6.06Z"/>
      <path class="cls-1" d="M.59,39.73c-1.11-.24-.36-2.59-.16-3.33,1.37-5.1,5.02-9.46,9.53-12.09.14.08.22.21.31.34,1.09,1.6,2.94,6.15,4.25,7.09.23.17.5.28.78.35-.11,1.29-.96,3.28-.76,4.51.19,1.15,1.84,2.11,2.34,3.13H.59Z"/>
      <path class="cls-1" d="M35.75,39.73h-12.93c.49-.9,2.14-2.02,2.34-3,.29-1.41-.71-3.19-.61-4.63l.93-.55,4.26-7.24c3.61,2.03,6.47,5.11,8.32,8.81l-.03.23c-1.46,1.82-2.12,4.07-2.28,6.37Z"/>
      <path class="cls-1" d="M14.86,22.35l4.99,3.66,4.9-3.66,3.08,1.08c-.8.88-3.27,6.4-3.99,6.7-.14.06-.2.09-.36.04-.72-.2-3.34-4.03-3.62-4.03-.93.99-1.7,2.18-2.64,3.17-.84.88-1.1,1.35-1.89.17-1.21-1.81-2.12-4.08-3.31-5.93-.05-.51,2.4-.99,2.84-1.2Z"/>
      <path class="cls-1" d="M20.05,29.44c.57.96,1.39,1.83,2.22,2.6l.83,3.93c.02.16-.06.27-.14.4-.16.27-2.49,2.84-2.7,2.97-.63.37-.92-.11-1.33-.53-.75-.78-1.38-1.71-2.18-2.43-.11-.11-.13-.24-.13-.4,0-.28.76-3.85.87-4.02.09-.14.52-.37.72-.6.37-.42,1.14-1.53,1.51-1.79.11-.08.14-.18.33-.13Z"/>
      <path class="cls-2" d="M48.51,6.25c6.69-.96,9.85,7.39,4.64,10.97-4.51,3.1-10.38-.77-9.45-6.16.38-2.21,2.56-4.49,4.82-4.81ZM52.33,9.41c-.76.17-2.55,2.62-3.34,3.13-.34.06-1.39-1.61-2.1-1.7-.79-.1-1.44.53-1.18,1.32.07.22,2.36,2.58,2.65,2.76s.59.3.93.14l4.32-4.27c.32-.89-.31-1.61-1.26-1.39Z"/>
    </g>
  </g>
</svg>