<?xml version="1.0" encoding="UTF-8"?>
<svg id="_圖層_2" data-name="圖層 2" xmlns="http://www.w3.org/2000/svg" viewBox="0 0 68.98 65.23">
  <defs>
    <style>
      .cls-1 {
        fill: #1a6f67;
      }

      .cls-2 {
        fill: #df9f0b;
      }
    </style>
  </defs>
  <g id="_圖層_1-2" data-name="圖層 1">
    <g>
      <path class="cls-1" d="M68.97,23.33c-.02.45.02.9,0,1.35-.15,3.22-.51,6.9-.81,10.17-.54,5.82-1.35,14.75-9.02,14.89v9.83h2.9c1.02,0,2.76,1.35,3.36,2.17.62.86,1.39,2.51.82,3.49h-2.83c-.31-.36-.25-.84-.49-1.26-.45-.78-1.23-.97-2.06-1.04-2.01-.15-6.55-.23-8.46.04-1.34.19-1.84.97-1.99,2.26h-3.03c-.08,0-.19-.2-.2-.32-.02-.34.26-1.53.39-1.9.49-1.4,2.6-3.43,4.11-3.43h2.9v-9.3h-6.94l-.2-.2v-4.38c2.55-.11,5.21.14,7.75,0,4.9-.26,7.33-2.32,7.99-7.23l1.11-15.12c.15-.26,4.11-.21,4.7-.02Z"/>
      <polygon class="cls-1" points="35.16 26.97 35.16 30.74 27.88 30.74 27.88 64.76 27.68 64.96 2.96 64.96 2.96 30.74 0 30.74 0 26.97 35.16 26.97"/>
      <path class="cls-2" d="M47.15,36.67l1.08-10.78c-3.79.78-7.53.84-11.37.39-1.09-.13-2.66-.34-3.69-.62-4.28-1.16-3.33-7.06,1.12-6.77,1.79.12,3.78.71,5.65.81,5.17.28,7.16-.46,11.52-2.77,4.79-2.54,9.81-1.04,11.3,4.33-.72,5.9-.83,12.44-1.91,18.27-.86,4.65-5.07,4.6-8.92,4.56-2.8-.03-5.5-.34-8.28.47-.99.29-1.66.52-2.16,1.48-2.39,4.6-3.41,10.89-5.05,15.83-.36,1.07-.74,1.94-1.77,2.54-2.98,1.71-6.09-.71-5.67-4.05.4-3.14,2.28-8.61,3.3-11.79.74-2.33,2.12-7.11,3.74-8.79,2.48-2.58,7.73-2.95,11.12-3.09Z"/>
      <path class="cls-2" d="M54.53.06c10.34-1.17,11.57,14.16,1.97,15.17-10.36,1.09-11.57-14.08-1.97-15.17Z"/>
      <path class="cls-1" d="M11.3,6.91l4.34,16,12.82.04c.6.17.44,2.61.17,2.81l-15.14-.04L8.62,7.89l.05-.32,2.62-.65Z"/>
    </g>
  </g>
</svg>